<svg width="400" height="400" xmlns="http://www.w3.org/2000/svg">
  <circle cx="200" cy="200" r="200" fill="black"/>
<path d="M 156.00 35.79 A 170 170 0 0 1 243.99 35.79 L 200 200 Z" fill="#ff0000"/>
<path d="M 243.99 35.79 A 170 170 0 0 1 320.20 79.79 L 200 200 Z" fill="#ff8000"/>
<path d="M 320.20 79.79 A 170 170 0 0 1 364.20 156.00 L 200 200 Z" fill="#ffff00"/>
<path d="M 364.20 156.00 A 170 170 0 0 1 364.20 243.99 L 200 200 Z" fill="#80ff00"/>
<path d="M 364.20 243.99 A 170 170 0 0 1 320.20 320.20 L 200 200 Z" fill="#00ff00"/>
<path d="M 320.20 320.20 A 170 170 0 0 1 243.99 364.20 L 200 200 Z" fill="#00ff80"/>
<path d="M 243.99 364.20 A 170 170 0 0 1 156.00 364.20 L 200 200 Z" fill="#00ffff"/>
<path d="M 156.00 364.20 A 170 170 0 0 1 79.79 320.20 L 200 200 Z" fill="#0080ff"/>
<path d="M 79.79 320.20 A 170 170 0 0 1 35.79 243.99 L 200 200 Z" fill="#0000ff"/>
<path d="M 35.79 243.99 A 170 170 0 0 1 35.79 156.00 L 200 200 Z" fill="#8000ff"/>
<path d="M 35.79 156.00 A 170 170 0 0 1 79.79 79.79 L 200 200 Z" fill="#ff00ff"/>
<path d="M 79.79 79.79 A 170 170 0 0 1 156.00 35.79 L 200 200 Z" fill="#ff0088"/>
  <circle cx="200" cy="200" r="85" fill="black"/>
  <circle cx="200" cy="200" r="55" fill="#aaa"/>
  <circle cx="200" cy="200" r="40" fill="#555"/>
</svg>
